<svg width="118" height="31" viewBox="0 0 118 31" fill="none" xmlns="http://www.w3.org/2000/svg">
<rect x="1" y="1" width="116" height="29" stroke="black" stroke-width="2"/>
<rect width="2" height="31" fill="black"/>
<path d="M32.75 21.25V9H36.25V19.5H43.25V21.25H32.75ZM50.25 10.75V9H53.75V10.75H50.25ZM46.75 21.25V19.5H50.25V14.25H48.5V12.5H53.75V19.5H57.25V21.25H46.75ZM59 21.25V9H62.5V16H66V14.25H67.75V12.5H71.25V14.25H69.5V16H67.75V17.75H69.5V19.5H71.25V21.25H67.75V19.5H66V17.75H62.5V21.25H59ZM74.75 21.25V19.5H73V14.25H74.75V12.5H83.5V14.25H85.25V17.75H76.5V19.5H83.5V21.25H74.75ZM76.5 16H81.75V14.25H76.5V16Z" fill="black"/>
</svg>
